<mxfile host="app.diagrams.net" modified="2023-04-17T08:52:16.082Z" agent="Mozilla/5.0 (Windows NT 10.0; Win64; x64) AppleWebKit/537.36 (KHTML, like Gecko) Chrome/112.0.0.0 Safari/537.36 Edg/112.0.1722.48" etag="y27wNiFL7NZMZ3W3jCVo" version="21.1.8" type="github">
  <diagram name="第 1 页" id="TvOghdLEXlN_RdS35WhK">
    <mxGraphModel dx="1050" dy="581" grid="1" gridSize="10" guides="1" tooltips="1" connect="1" arrows="1" fold="1" page="1" pageScale="1" pageWidth="827" pageHeight="1169" math="0" shadow="0">
      <root>
        <mxCell id="0" />
        <mxCell id="1" parent="0" />
        <mxCell id="h4DI42kt3oIY_V8vE__m-12" value="" style="swimlane;startSize=0;" vertex="1" parent="1">
          <mxGeometry x="140" y="40" width="570" height="380" as="geometry" />
        </mxCell>
        <mxCell id="h4DI42kt3oIY_V8vE__m-15" value="没有一方率先达到11分或没有一方比对方至少多得两分" style="text;html=1;strokeColor=none;fillColor=none;align=center;verticalAlign=middle;whiteSpace=wrap;rounded=0;" vertex="1" parent="h4DI42kt3oIY_V8vE__m-12">
          <mxGeometry x="90" y="25" width="410" height="30" as="geometry" />
        </mxCell>
        <mxCell id="h4DI42kt3oIY_V8vE__m-17" value="" style="endArrow=none;html=1;rounded=0;exitX=0.001;exitY=0.182;exitDx=0;exitDy=0;exitPerimeter=0;" edge="1" parent="h4DI42kt3oIY_V8vE__m-12" source="h4DI42kt3oIY_V8vE__m-12">
          <mxGeometry width="50" height="50" relative="1" as="geometry">
            <mxPoint y="70" as="sourcePoint" />
            <mxPoint x="510" y="70" as="targetPoint" />
            <Array as="points">
              <mxPoint x="260" y="140" />
            </Array>
          </mxGeometry>
        </mxCell>
        <mxCell id="h4DI42kt3oIY_V8vE__m-18" value="是否得胜" style="text;html=1;strokeColor=none;fillColor=none;align=center;verticalAlign=middle;whiteSpace=wrap;rounded=0;" vertex="1" parent="h4DI42kt3oIY_V8vE__m-12">
          <mxGeometry x="230" y="90" width="60" height="30" as="geometry" />
        </mxCell>
        <mxCell id="h4DI42kt3oIY_V8vE__m-19" value="" style="endArrow=none;html=1;rounded=0;exitX=0;exitY=0.368;exitDx=0;exitDy=0;exitPerimeter=0;" edge="1" parent="h4DI42kt3oIY_V8vE__m-12" source="h4DI42kt3oIY_V8vE__m-12">
          <mxGeometry width="50" height="50" relative="1" as="geometry">
            <mxPoint x="210" y="220" as="sourcePoint" />
            <mxPoint x="510" y="140" as="targetPoint" />
          </mxGeometry>
        </mxCell>
        <mxCell id="h4DI42kt3oIY_V8vE__m-21" value="T" style="text;html=1;strokeColor=none;fillColor=none;align=center;verticalAlign=middle;whiteSpace=wrap;rounded=0;" vertex="1" parent="h4DI42kt3oIY_V8vE__m-12">
          <mxGeometry x="30" y="100" width="60" height="30" as="geometry" />
        </mxCell>
        <mxCell id="h4DI42kt3oIY_V8vE__m-22" value="F" style="text;html=1;strokeColor=none;fillColor=none;align=center;verticalAlign=middle;whiteSpace=wrap;rounded=0;" vertex="1" parent="h4DI42kt3oIY_V8vE__m-12">
          <mxGeometry x="420" y="100" width="60" height="30" as="geometry" />
        </mxCell>
        <mxCell id="h4DI42kt3oIY_V8vE__m-24" value="淘汰" style="text;html=1;strokeColor=none;fillColor=none;align=center;verticalAlign=middle;whiteSpace=wrap;rounded=0;" vertex="1" parent="h4DI42kt3oIY_V8vE__m-12">
          <mxGeometry x="370" y="260" width="60" height="30" as="geometry" />
        </mxCell>
        <mxCell id="h4DI42kt3oIY_V8vE__m-26" value="" style="endArrow=none;html=1;rounded=0;exitX=-0.001;exitY=0.369;exitDx=0;exitDy=0;exitPerimeter=0;" edge="1" parent="h4DI42kt3oIY_V8vE__m-12" source="h4DI42kt3oIY_V8vE__m-12">
          <mxGeometry width="50" height="50" relative="1" as="geometry">
            <mxPoint x="100" y="260" as="sourcePoint" />
            <mxPoint x="260" y="140" as="targetPoint" />
            <Array as="points">
              <mxPoint x="130" y="200" />
            </Array>
          </mxGeometry>
        </mxCell>
        <mxCell id="h4DI42kt3oIY_V8vE__m-28" value="是否最后一轮" style="text;html=1;strokeColor=none;fillColor=none;align=center;verticalAlign=middle;whiteSpace=wrap;rounded=0;" vertex="1" parent="h4DI42kt3oIY_V8vE__m-12">
          <mxGeometry x="80" y="150" width="100" height="30" as="geometry" />
        </mxCell>
        <mxCell id="h4DI42kt3oIY_V8vE__m-29" value="T" style="text;html=1;strokeColor=none;fillColor=none;align=center;verticalAlign=middle;whiteSpace=wrap;rounded=0;" vertex="1" parent="h4DI42kt3oIY_V8vE__m-12">
          <mxGeometry x="10" y="160" width="60" height="30" as="geometry" />
        </mxCell>
        <mxCell id="h4DI42kt3oIY_V8vE__m-30" value="F" style="text;html=1;strokeColor=none;fillColor=none;align=center;verticalAlign=middle;whiteSpace=wrap;rounded=0;" vertex="1" parent="h4DI42kt3oIY_V8vE__m-12">
          <mxGeometry x="200" y="160" width="60" height="30" as="geometry" />
        </mxCell>
        <mxCell id="h4DI42kt3oIY_V8vE__m-32" value="冠军" style="text;html=1;strokeColor=none;fillColor=none;align=center;verticalAlign=middle;whiteSpace=wrap;rounded=0;" vertex="1" parent="h4DI42kt3oIY_V8vE__m-12">
          <mxGeometry x="30" y="280" width="60" height="30" as="geometry" />
        </mxCell>
        <mxCell id="h4DI42kt3oIY_V8vE__m-33" value="下一轮" style="text;html=1;strokeColor=none;fillColor=none;align=center;verticalAlign=middle;whiteSpace=wrap;rounded=0;" vertex="1" parent="h4DI42kt3oIY_V8vE__m-12">
          <mxGeometry x="160" y="280" width="60" height="30" as="geometry" />
        </mxCell>
        <mxCell id="h4DI42kt3oIY_V8vE__m-14" value="" style="endArrow=none;html=1;rounded=0;exitX=-0.002;exitY=0.177;exitDx=0;exitDy=0;exitPerimeter=0;" edge="1" parent="1" source="h4DI42kt3oIY_V8vE__m-12">
          <mxGeometry width="50" height="50" relative="1" as="geometry">
            <mxPoint x="140" y="110" as="sourcePoint" />
            <mxPoint x="652" y="420" as="targetPoint" />
            <Array as="points">
              <mxPoint x="652" y="110" />
            </Array>
          </mxGeometry>
        </mxCell>
        <mxCell id="h4DI42kt3oIY_V8vE__m-23" value="" style="endArrow=none;html=1;rounded=0;" edge="1" parent="1">
          <mxGeometry width="50" height="50" relative="1" as="geometry">
            <mxPoint x="400" y="420" as="sourcePoint" />
            <mxPoint x="400" y="180" as="targetPoint" />
          </mxGeometry>
        </mxCell>
        <mxCell id="h4DI42kt3oIY_V8vE__m-27" value="" style="endArrow=none;html=1;rounded=0;exitX=-0.001;exitY=0.525;exitDx=0;exitDy=0;exitPerimeter=0;" edge="1" parent="1" source="h4DI42kt3oIY_V8vE__m-12">
          <mxGeometry width="50" height="50" relative="1" as="geometry">
            <mxPoint x="390" y="290" as="sourcePoint" />
            <mxPoint x="400" y="240" as="targetPoint" />
            <Array as="points">
              <mxPoint x="270" y="240" />
            </Array>
          </mxGeometry>
        </mxCell>
        <mxCell id="h4DI42kt3oIY_V8vE__m-31" value="" style="endArrow=none;html=1;rounded=0;" edge="1" parent="1">
          <mxGeometry width="50" height="50" relative="1" as="geometry">
            <mxPoint x="270" y="240" as="sourcePoint" />
            <mxPoint x="270" y="420" as="targetPoint" />
          </mxGeometry>
        </mxCell>
      </root>
    </mxGraphModel>
  </diagram>
</mxfile>
